<svg id="visual" viewBox="0 0 1400 700" width="1400" height="700" xmlns="http://www.w3.org/2000/svg" xmlns:xlink="http://www.w3.org/1999/xlink" version="1.1"><rect x="0" y="0" width="1400" height="700" fill="#e4e3e9"></rect><path d="M1079 700L1024 700L1024 613L1105 613L1105 525L1085 525L1085 438L1108 438L1108 350L1059 350L1059 263L1093 263L1093 175L1096 175L1096 88L1073 88L1073 0L1400 0L1400 88L1400 88L1400 175L1400 175L1400 263L1400 263L1400 350L1400 350L1400 438L1400 438L1400 525L1400 525L1400 613L1400 613L1400 700L1400 700Z" fill="#d8d100"></path><path d="M1250 700L1220 700L1220 613L1193 613L1193 525L1243 525L1243 438L1250 438L1250 350L1230 350L1230 263L1247 263L1247 175L1213 175L1213 88L1249 88L1249 0L1400 0L1400 88L1400 88L1400 175L1400 175L1400 263L1400 263L1400 350L1400 350L1400 438L1400 438L1400 525L1400 525L1400 613L1400 613L1400 700L1400 700Z" fill="#160fff"></path></svg>